<svg width="532" height="433" viewBox="0 0 532 433" fill="none" xmlns="http://www.w3.org/2000/svg">
<path d="M9.06663 2.99968C6.66663 4.33302 3.73329 7.53302 2.53329 9.93302C-2.26671 19.133 0.79996 31.3997 9.06663 36.333C12.9333 38.733 15.8666 38.9997 41.6 38.9997H69.7333L71.0666 42.5997C72.2666 46.0664 174.133 315.933 175.867 320.333C176.4 321.666 174.8 323.533 170.8 326.066C152.8 337.4 142.267 361.533 145.867 383.4C149.067 402.6 161.467 419.133 179.067 427.4C187.467 431.4 188.933 431.666 202.667 431.666C216.667 431.666 217.733 431.4 226.667 427.133C238.533 421.266 248.133 411.666 254.133 399.666C258.4 390.866 258.667 389.8 258.667 375.666C258.667 367.666 258.4 359.8 258 358.333C257.333 355.666 258.133 355.666 316.533 355.266L375.6 355L374.8 358.6C368 387.8 380.8 415.133 406.933 427.266C431.333 438.733 462.4 430.066 477.333 407.666C490.133 388.2 490.667 362.066 478.667 343C471.2 331.133 456.8 320.866 443.2 317.8C439.467 316.866 396.4 316.333 326.667 316.333H216L211.067 303.133C208.267 295.933 206 289.4 206 288.6C206 287.4 238.4 287 334.4 287C453.867 287 462.933 286.866 467.2 284.6C469.733 283.4 472.8 280.866 474.133 279C477.867 273.666 531.867 96.5997 531.867 89.933C531.733 83.7997 529.067 78.9997 522.8 74.4664C519.2 71.6664 518.8 71.6664 321.333 71.2664C135.067 70.9997 123.6 70.8664 122.667 68.5997C122.133 67.3997 117.067 53.933 111.333 38.733C98.9333 5.93302 99.2 6.59968 93.4666 3.13302C89.2 0.466351 87.2 0.333018 51.2 0.333018C16 0.333018 13.0666 0.466351 9.06663 2.99968ZM250 115.266C250 117.666 250.933 130.466 252 143.666C253.067 156.866 254 168.733 254 170.066C254 172.2 251.2 172.333 207.733 172.066L161.467 171.666L151.067 144.333C145.333 129.266 140.267 115.666 139.867 113.933L139.067 111H194.533H250V115.266ZM363.333 115.933C363.333 118.733 362.4 131.133 361.333 143.666C360.267 156.066 359.333 167.666 359.333 169.4V172.333L316.4 172.066L273.333 171.666L271.733 151C270.933 139.666 269.867 125.933 269.467 120.6L268.533 111H316H363.333V115.933ZM485.467 113.266C483.467 119.8 477.6 138.866 472.667 154.6L467.2 172.333H422.533H378L378.667 167.266C378.933 164.6 379.867 153.266 380.667 142.333C381.467 131.266 382.4 119.8 382.8 116.6L383.467 111H434.8C483.067 111 486.133 111.133 485.467 113.266ZM255.867 196.6C256.8 202.333 259.333 237 259.333 243.4V248.333H225.467C200 248.333 191.333 247.933 190.4 246.6C188.933 244.866 170 195.533 170 193.533C170 192.866 187.333 192.333 212.667 192.333H255.2L255.867 196.6ZM357.067 199.266C356.667 203.133 355.733 215.666 354.933 227L353.333 247.666L317.467 248.066C297.733 248.333 281.067 247.933 280.4 247.266C279.333 246.2 275.467 206.2 275.333 195.933V192.333H316.533H357.867L357.067 199.266ZM460.667 193.266C460.667 195 445.067 245.266 444 246.866C442.933 248.733 374.4 248.733 373.333 247C372.933 246.333 373.467 234.333 374.667 220.466C375.733 206.6 376.667 194.6 376.667 193.8C376.667 192.733 389.867 192.333 418.667 192.333C441.733 192.333 460.667 192.733 460.667 193.266ZM212.4 358.6C220.533 363.666 223.067 376.333 217.6 384.466C211.067 394.333 199.6 395.933 190.667 388.2C173.867 373.4 193.467 346.6 212.4 358.6ZM439.733 358.6C451.067 364.333 451.467 383 440.4 390.2C430.667 396.466 417.867 392.2 413.467 381.4C411.2 376.066 411.067 374.333 412.4 369.933C416.133 357.4 427.867 352.6 439.733 358.6Z" fill="white"/>
</svg>
